<svg width="97" height="107" viewBox="0 0 97 107" fill="none" xmlns="http://www.w3.org/2000/svg">
<g clip-path="url(#clip0_656_4295)">
<path d="M33.4808 81.6136L35.0428 81.2549V81.2046L48.5871 78.1235L93.2643 67.9683C94.8902 67.6096 95.9483 66.2115 95.9483 64.5754V53.1831C95.9483 50.739 94.7961 48.6168 93.0493 47.2824C91.4403 46.052 89.3072 45.5021 87.0968 46.0118L87.0901 46.0185L59.3298 52.4623C56.592 53.0993 54.6538 55.5434 54.6538 58.3529V65.8192C54.6538 66.2249 54.375 66.6105 53.945 66.7043C53.3638 66.8317 52.8129 66.4093 52.8129 65.8192V62.6979C52.8129 62.3057 52.4367 62.0207 52.0605 62.1313C51.8052 62.2017 51.6305 62.4331 51.6305 62.6979L51.6406 65.7421C51.6406 66.5937 51.0527 67.3279 50.2196 67.509L48.5904 67.8644L35.0462 70.9957L33.9746 71.2271C33.5513 71.331 33.1348 71.0125 33.1348 70.5733V65.1923C33.1348 64.6022 32.7586 64.0658 32.1841 63.9149C31.3645 63.7004 30.7968 62.9225 30.7968 61.91V60.522C30.7968 55.8183 26.4702 52.298 21.8983 53.334L3.27158 57.5985C1.38707 58.0377 0.0467574 59.7141 0.0467574 61.6485V66.4697C0.0467574 68.089 1.54496 69.2892 3.12714 68.9272L26.7019 63.64C27.2058 63.5126 27.6929 63.9216 27.6929 64.4312C27.6929 64.8604 27.4141 65.1889 27.0311 65.2862L6.71811 69.8391C2.68036 70.7979 0.0400391 73.983 0.0400391 78.0866V102.085C0.0400391 105.166 2.86848 107.496 5.86488 106.903C5.9287 106.889 5.98917 106.873 6.05299 106.856L95.7199 79.5148C96.4488 79.2936 96.9594 78.6398 96.9964 77.8821C97.0568 76.655 95.8946 75.7263 94.7088 76.0549L12.7512 98.8597C12.5698 98.9167 12.3851 98.9669 12.197 99.0038C10.6013 99.3089 8.93182 98.91 7.69899 97.8438C6.78865 97.0526 6.25118 96.0535 5.94885 95.0209C4.78322 91.0446 6.88607 87.93 10.7894 86.5152C10.8096 86.5085 10.8331 86.4984 10.8533 86.4917C11.0011 86.4381 11.0884 86.4146 11.0884 86.4146L11.6057 86.2838L28.9727 82.4316M57.7745 64.0692L90.9767 56.2139C91.5108 56.0865 92.0214 56.4922 92.0214 57.042C92.0214 57.4342 91.7493 57.7762 91.3664 57.8734L58.1574 65.6985C57.6334 65.8259 57.1295 65.427 57.1295 64.8839C57.1295 64.4916 57.3949 64.1563 57.7745 64.0692Z" fill="url(#paint0_linear_656_4295)"/>
<path d="M13.8569 91.5445L93.6041 73.1484L14.4515 93.9718C12.8357 94.3473 12.2277 91.9837 13.8569 91.5579V91.5445Z" fill="url(#paint1_linear_656_4295)"/>
<path d="M52.2526 11.2921L45.6686 12.7606C44.5366 13.0154 43.7438 13.9742 43.7438 15.1644V31.3309C43.7438 33.9829 45.9239 35.7397 48.4769 35.1563L59.5387 32.6418C59.747 32.5949 59.9385 32.7524 59.9385 32.9603V33.9829C59.9385 35.6123 58.8064 37.0003 57.2074 37.3288L41.7249 40.9933C40.8717 41.1944 40.2637 41.9588 40.2637 42.8439V50.2868C40.2637 51.5173 41.4125 52.4258 42.6117 52.1308L54.0565 49.4319C58.1581 48.5133 61.1444 44.9058 61.1444 40.6647L61.1612 18.4768C61.1612 13.8234 56.8346 10.2863 52.2627 11.2921H52.256H52.2526ZM59.9385 21.7289C59.9385 22.1212 59.6664 22.4631 59.2834 22.5503L45.9709 25.5442C45.42 25.6716 44.9162 25.2961 44.9162 24.753C44.9162 24.3306 45.2118 23.9953 45.5947 23.8981L58.924 20.9042C59.4514 20.7835 59.9452 21.1824 59.9452 21.7256H59.9385V21.7289Z" fill="url(#paint2_linear_656_4295)"/>
<path d="M78.4443 38.4851L78.4208 38.5186C77.5272 39.7557 77.7993 41.489 79.0422 42.3842C80.2952 43.2928 82.0521 42.9977 82.9355 41.7304L82.959 41.6902C83.8291 40.4531 83.5402 38.7432 82.3141 37.8581C81.0779 36.963 79.3445 37.2345 78.4443 38.4717V38.4884V38.4851Z" fill="url(#paint3_linear_656_4295)"/>
<path d="M11.5929 46.8574L11.566 46.8943C10.5113 48.3527 10.8337 50.3944 12.2983 51.4472C13.7764 52.52 15.8423 52.1713 16.887 50.676L16.9139 50.6291C17.9384 49.1707 17.5992 47.1591 16.1513 46.1131C14.6935 45.0604 12.6544 45.3789 11.5896 46.8373V46.8574H11.5929Z" fill="url(#paint4_linear_656_4295)"/>
<path d="M39.5074 14.0543C39.8602 13.9738 40.1927 14.2454 40.2028 14.6041L40.2498 32.1519C40.2498 35.186 38.325 37.6134 35.342 38.2437L8.35095 44.4226C3.35919 45.4787 0 44.1376 0 37.7106L0.0335919 23.5859C0.0335919 23.321 0.218347 23.0897 0.473646 23.036L0.544189 23.0193C0.903622 22.9388 1.23954 23.2104 1.23954 23.5792L1.21603 28.3064V28.4036L37.0586 20.716C38.2007 20.4679 38.9834 19.4554 38.9834 18.3222L39.054 14.6007C39.054 14.3359 39.2454 14.1146 39.5007 14.0576H39.5074V14.0543Z" fill="url(#paint5_linear_656_4295)"/>
<path d="M95.9151 15.2684V29.0579C95.9151 30.7342 94.7494 32.1893 93.1135 32.5547L69.4749 37.8888L67.7583 38.281C66.3441 38.5995 64.9971 37.5233 64.9971 36.0683L65.0273 0.570358C65.0273 0.298793 65.2188 0.0607547 65.4909 0.0104649C65.8436 -0.0532356 66.1627 0.211624 66.1627 0.570358L66.203 8.63349V21.0584L69.4682 20.3007V20.3175L89.2538 15.7042C89.6367 15.6238 89.9156 15.2818 89.9156 14.8661C89.9156 14.3632 89.4117 13.9307 88.8776 14.0581L75.7969 17.1627C74.601 17.4342 73.4488 16.5223 73.4488 15.2952V7.94285C73.4488 7.04769 74.0702 6.27323 74.9403 6.07542L84.6685 3.85596C89.2404 2.79317 93.52 6.33022 93.52 11.0273V12.3684C93.52 13.4378 94.2153 14.2525 95.1559 14.3799C95.5859 14.4436 95.8983 14.8359 95.8983 15.2751H95.9151V15.2684Z" fill="url(#paint6_linear_656_4295)"/>
</g>
<defs>
<linearGradient id="paint0_linear_656_4295" x1="47.5592" y1="46.7326" x2="48.8708" y2="106.028" gradientUnits="userSpaceOnUse">
<stop stop-color="#125CFC"/>
<stop offset="1" stop-color="#7394FF"/>
</linearGradient>
<linearGradient id="paint1_linear_656_4295" x1="12.8222" y1="83.9342" x2="93.6916" y2="83.2271" gradientUnits="userSpaceOnUse">
<stop stop-color="#F7B729"/>
<stop offset="1" stop-color="#FFCE00"/>
</linearGradient>
<linearGradient id="paint2_linear_656_4295" x1="40.2637" y1="31.6528" x2="61.1578" y2="31.6528" gradientUnits="userSpaceOnUse">
<stop stop-color="#F7B729"/>
<stop offset="1" stop-color="#FFCE00"/>
</linearGradient>
<linearGradient id="paint3_linear_656_4295" x1="77.8967" y1="40.1178" x2="83.4596" y2="40.1178" gradientUnits="userSpaceOnUse">
<stop stop-color="#F7B729"/>
<stop offset="1" stop-color="#FFCE00"/>
</linearGradient>
<linearGradient id="paint4_linear_656_4295" x1="10.9446" y1="48.7818" x2="17.4984" y2="48.7818" gradientUnits="userSpaceOnUse">
<stop stop-color="#F7B729"/>
<stop offset="1" stop-color="#FFCE00"/>
</linearGradient>
<linearGradient id="paint5_linear_656_4295" x1="0" y1="29.396" x2="40.2498" y2="29.396" gradientUnits="userSpaceOnUse">
<stop stop-color="#F7B729"/>
<stop offset="1" stop-color="#FFCE00"/>
</linearGradient>
<linearGradient id="paint6_linear_656_4295" x1="64.9971" y1="19.1675" x2="95.9151" y2="19.1675" gradientUnits="userSpaceOnUse">
<stop stop-color="#F7B729"/>
<stop offset="1" stop-color="#FFCE00"/>
</linearGradient>
<clipPath id="clip0_656_4295">
<rect width="97" height="107" fill="white"/>
</clipPath>
</defs>
</svg>
